<svg xmlns="http://www.w3.org/2000/svg" height="18px" width="15px" xmlns:xlink="http://www.w3.org/1999/xlink" viewBox="0 0 15 18">
<g fill-rule="evenodd" fill="none">
<g transform="translate(-29 -92)" fill="#398fd1">
<g transform="translate(19 81)">
<g transform="translate(0 1)">
<path d="m24.595 17.043c0-3.889-3.268-7.043-7.298-7.043-4.029 0-7.297 3.154-7.297 7.043 0 2.639 3.356 7.098 5.517 9.694h0.001c0.42 0.499 1.061 0.818 1.779 0.818 0.719 0 1.36-0.319 1.78-0.818h0.001c2.16-2.596 5.517-7.055 5.517-9.694zm-11.352 0c0-2.16 1.816-3.913 4.054-3.913 2.239 0 4.054 1.753 4.054 3.913 0 2.161-1.815 3.914-4.054 3.914-2.238 0-4.054-1.753-4.054-3.914z"/>
</g>
</g>
</g>
</g>
</svg>
